{
  "accessors": [
    {
      "bufferView": 2,
      "componentType": 5126,
      "count": 2234,
      "max": [
        -849.31939697265625,
        1915.8160400390625,
        577.3280029296875
      ],
      "min": [
        -3164.50439453125,
        -362.58749389648438,
        -1748.4349365234375
      ],
      "type": "VEC3"
    },
    {
      "bufferView": 2,
      "byteOffset": 26808,
      "componentType": 5126,
      "count": 2234,
      "max": [
        0.99829453229904175,
        0.99663800001144409,
        0.99819654226303101
      ],
      "min": [
        -0.99926924705505371,
        -0.99729353189468384,
        -0.99882900714874268
      ],
      "type": "VEC3"
    },
    {
      "bufferView": 1,
      "componentType": 5126,
      "count": 2234,
      "max": [
        0.9919581413269043,
        0.9920806884765625
      ],
      "min": [
        0.0080418819561600685,
        0.0079193115234375
      ],
      "type": "VEC2"
    },
    {
      "bufferView": 1,
      "byteOffset": 17872,
      "componentType": 5126,
      "count": 2234,
      "max": [
        0.9919581413269043,
        0.9920806884765625
      ],
      "min": [
        0.0080418819561600685,
        0.0079193115234375
      ],
      "type": "VEC2"
    },
    {
      "bufferView": 0,
      "componentType": 5125,
      "count": 7590,
      "max": [
        2233
      ],
      "min": [
        0
      ],
      "type": "SCALAR"
    },
    {
      "bufferView": 2,
      "byteOffset": 53616,
      "componentType": 5126,
      "count": 24,
      "max": [
        60.594577789306641,
        59.051929473876953,
        41.745704650878906
      ],
      "min": [
        -60.594577789306641,
        -59.051929473876953,
        -41.745704650878906
      ],
      "type": "VEC3"
    },
    {
      "bufferView": 2,
      "byteOffset": 53904,
      "componentType": 5126,
      "count": 24,
      "max": [
        1,
        1,
        1
      ],
      "min": [
        -1,
        -1,
        -1
      ],
      "type": "VEC3"
    },
    {
      "bufferView": 1,
      "byteOffset": 35744,
      "componentType": 5126,
      "count": 24,
      "max": [
        0.99233317375183105,
        0.99129372835159302
      ],
      "min": [
        0.0076668020337820053,
        0.0087063312530517578
      ],
      "type": "VEC2"
    },
    {
      "bufferView": 1,
      "byteOffset": 35936,
      "componentType": 5126,
      "count": 24,
      "max": [
        0.99233317375183105,
        0.99129372835159302
      ],
      "min": [
        0.0076668020337820053,
        0.0087063312530517578
      ],
      "type": "VEC2"
    },
    {
      "bufferView": 0,
      "byteOffset": 30360,
      "componentType": 5125,
      "count": 36,
      "max": [
        23
      ],
      "min": [
        0
      ],
      "type": "SCALAR"
    },
    {
      "bufferView": 2,
      "byteOffset": 54192,
      "componentType": 5126,
      "count": 1026,
      "max": [
        372.48074340820312,
        746.08294677734375,
        -1.1543656655566004e-12
      ],
      "min": [
        5.790320873260498,
        -63.794666290283203,
        -178.72459411621094
      ],
      "type": "VEC3"
    },
    {
      "bufferView": 2,
      "byteOffset": 66504,
      "componentType": 5126,
      "count": 1026,
      "max": [
        0.99999892711639404,
        0.99999982118606567,
        1
      ],
      "min": [
        -0.99999970197677612,
        -0.99994659423828125,
        -1
      ],
      "type": "VEC3"
    },
    {
      "bufferView": 1,
      "byteOffset": 36128,
      "componentType": 5126,
      "count": 1026,
      "max": [
        0.99137228727340698,
        0.99100202322006226
      ],
      "min": [
        0.0086277313530445099,
        0.0089980363845825195
      ],
      "type": "VEC2"
    },
    {
      "bufferView": 1,
      "byteOffset": 44336,
      "componentType": 5126,
      "count": 1026,
      "max": [
        0.99137228727340698,
        0.99100202322006226
      ],
      "min": [
        0.0086277313530445099,
        0.0089980363845825195
      ],
      "type": "VEC2"
    },
    {
      "bufferView": 0,
      "byteOffset": 30504,
      "componentType": 5125,
      "count": 2976,
      "max": [
        1025
      ],
      "min": [
        0
      ],
      "type": "SCALAR"
    }
  ],
  "asset": {
    "extras": {
      "author": "Luc.Miramont (https://sketchfab.com/Luc.Miramont)",
      "license": "CC-BY-4.0 (http://creativecommons.org/licenses/by/4.0/)",
      "source": "https://sketchfab.com/3d-models/planete-0bd1469afea1407a80d3471731e4f72e",
      "title": "Planete"
    },
    "generator": "Sketchfab-8.20.0",
    "version": "2.0"
  },
  "bufferViews": [
    {
      "buffer": 0,
      "byteLength": 42408,
      "byteOffset": 0,
      "name": "floatBufferViews",
      "target": 34963
    },
    {
      "buffer": 0,
      "byteLength": 52544,
      "byteOffset": 42408,
      "byteStride": 8,
      "name": "floatBufferViews",
      "target": 34962
    },
    {
      "buffer": 0,
      "byteLength": 78816,
      "byteOffset": 94952,
      "byteStride": 12,
      "name": "floatBufferViews",
      "target": 34962
    }
  ],
  "buffers": [
    {
      "byteLength": 173768,
      "uri": "scene.bin"
    }
  ],
  "extensionsRequired": [
    "KHR_materials_pbrSpecularGlossiness"
  ],
  "extensionsUsed": [
    "KHR_materials_pbrSpecularGlossiness"
  ],
  "images": [
    {
      "uri": "textures/Planete_diffuse.jpeg"
    },
    {
      "uri": "textures/Planete_specularGlossiness.png"
    },
    {
      "uri": "textures/Planete_occlusion.png"
    },
    {
      "uri": "textures/material_2_occlusion.png"
    }
  ],
  "materials": [
    {
      "doubleSided": true,
      "extensions": {
        "KHR_materials_pbrSpecularGlossiness": {
          "diffuseFactor": [
            0.16634908536585366,
            0.16634908536585366,
            0.16634908536585366,
            1
          ],
          "diffuseTexture": {
            "index": 0,
            "texCoord": 0
          },
          "glossinessFactor": 1,
          "specularFactor": [
            0,
            0,
            0
          ],
          "specularGlossinessTexture": {
            "index": 1,
            "texCoord": 0
          }
        }
      },
      "name": "Planete",
      "occlusionTexture": {
        "index": 2,
        "strength": 1,
        "texCoord": 0
      }
    },
    {
      "doubleSided": true,
      "extensions": {
        "KHR_materials_pbrSpecularGlossiness": {
          "diffuseFactor": [
            0.0043908155673542679,
            0.0040559983564694398,
            0.0040559983564694398,
            1
          ],
          "glossinessFactor": 0.04756828460010884,
          "specularFactor": [
            0,
            0,
            0
          ]
        }
      },
      "name": "material"
    },
    {
      "doubleSided": true,
      "extensions": {
        "KHR_materials_pbrSpecularGlossiness": {
          "diffuseFactor": [
            0.0044282092575749317,
            0.0044282092575749317,
            0.0044282092575749317,
            1
          ],
          "glossinessFactor": 0,
          "specularFactor": [
            0,
            0,
            0
          ]
        }
      },
      "name": "material_2",
      "occlusionTexture": {
        "index": 3,
        "strength": 1,
        "texCoord": 0
      }
    }
  ],
  "meshes": [
    {
      "name": "Planete_1_Planete_0",
      "primitives": [
        {
          "attributes": {
            "NORMAL": 1,
            "POSITION": 0,
            "TEXCOORD_0": 2,
            "TEXCOORD_1": 3
          },
          "indices": 4,
          "material": 0,
          "mode": 4
        }
      ]
    },
    {
      "name": "Polygon_Mat_0",
      "primitives": [
        {
          "attributes": {
            "NORMAL": 6,
            "POSITION": 5,
            "TEXCOORD_0": 7,
            "TEXCOORD_1": 8
          },
          "indices": 9,
          "material": 1,
          "mode": 4
        }
      ]
    },
    {
      "name": "S_1_S_0",
      "primitives": [
        {
          "attributes": {
            "NORMAL": 11,
            "POSITION": 10,
            "TEXCOORD_0": 12,
            "TEXCOORD_1": 13
          },
          "indices": 14,
          "material": 2,
          "mode": 4
        }
      ]
    }
  ],
  "nodes": [
    {
      "children": [
        1
      ],
      "name": "RootNode (gltf orientation matrix)",
      "rotation": [
        -0.70710678118654746,
        -0,
        -0,
        0.70710678118654757
      ]
    },
    {
      "children": [
        2
      ],
      "name": "RootNode (model correction matrix)"
    },
    {
      "children": [
        3
      ],
      "matrix": [
        1,
        0,
        0,
        0,
        0,
        0,
        1,
        0,
        0,
        -1,
        0,
        0,
        0,
        0,
        0,
        1
      ],
      "name": "ef0f22b62a62451d96881ed74e5c374e.fbx"
    },
    {
      "children": [
        4,
        6,
        8
      ],
      "name": "RootNode"
    },
    {
      "children": [
        5
      ],
      "matrix": [
        1,
        0,
        0,
        0,
        0,
        1,
        0,
        0,
        0,
        0,
        1,
        0,
        1864.7852783203125,
        -783.47064208984375,
        534.7589111328125,
        1
      ],
      "name": "Planete_1"
    },
    {
      "mesh": 0,
      "name": "Planete_1_Planete_0"
    },
    {
      "children": [
        7
      ],
      "matrix": [
        0.84671359813875358,
        -0.51906812046708761,
        -0.11680911369276903,
        0,
        0.49627589309209902,
        0.84965840686393046,
        -0.17829983056942886,
        0,
        0.19179760338065949,
        0.09299934386979572,
        0.97701832192504079,
        0,
        68.843421936035156,
        102.1971435546875,
        1049.6365966796875,
        1
      ],
      "name": "Polygon"
    },
    {
      "mesh": 1,
      "name": "Polygon_Mat_0"
    },
    {
      "children": [
        9
      ],
      "matrix": [
        0.93840144104517598,
        -0.30408767605190878,
        0.1641140478986689,
        0,
        0.34529410936897509,
        0.84337348310986959,
        -0.41169545300162458,
        0,
        -0.013217922659158485,
        0.44300322037257922,
        0.89642257516201618,
        0,
        -371.48696899414062,
        252.88548278808594,
        1094.2835693359375,
        1
      ],
      "name": "S_1"
    },
    {
      "mesh": 2,
      "name": "S_1_S_0"
    }
  ],
  "samplers": [
    {
      "magFilter": 9729,
      "minFilter": 9987,
      "wrapS": 10497,
      "wrapT": 10497
    }
  ],
  "scene": 0,
  "scenes": [
    {
      "name": "OSG_Scene",
      "nodes": [
        0
      ]
    }
  ],
  "textures": [
    {
      "sampler": 0,
      "source": 0
    },
    {
      "sampler": 0,
      "source": 1
    },
    {
      "sampler": 0,
      "source": 2
    },
    {
      "sampler": 0,
      "source": 3
    }
  ]
}

